<svg width="841" height="522" viewBox="0 0 841 522" fill="none" xmlns="http://www.w3.org/2000/svg">
<path d="M595.921 448.071C604.447 452.886 613.074 457.249 621.801 461.162C630.629 464.973 639.757 468.234 649.186 470.942C658.615 473.55 668.496 475.556 678.828 476.961C689.26 478.365 700.345 479.067 712.081 479.067C726.225 479.067 738.262 478.164 748.193 476.359C758.124 474.453 766.199 471.895 772.418 468.685C778.738 465.375 783.302 461.463 786.111 456.949C789.02 452.435 790.474 447.519 790.474 442.203C790.474 433.676 786.913 426.956 779.791 422.04C772.669 417.025 761.685 414.517 746.839 414.517C740.319 414.517 733.447 414.968 726.225 415.871C719.003 416.674 711.68 417.576 704.257 418.58C696.934 419.583 689.662 420.536 682.439 421.438C675.317 422.241 668.596 422.642 662.277 422.642C651.744 422.642 641.613 421.288 631.883 418.58C622.253 415.871 613.676 411.809 606.153 406.392C598.73 400.975 592.811 394.204 588.398 386.079C583.984 377.954 581.777 368.474 581.777 357.641C581.777 351.221 582.63 344.851 584.335 338.531C586.141 332.212 588.949 326.193 592.761 320.476C596.673 314.657 601.689 309.291 607.808 304.376C613.927 299.36 621.3 295.047 629.926 291.436C638.654 287.824 648.685 285.016 660.02 283.009C671.455 280.903 684.445 279.85 698.99 279.85C709.523 279.85 720.106 280.451 730.739 281.655C741.372 282.759 751.704 284.364 761.735 286.47C771.866 288.577 781.597 291.135 790.925 294.144C800.254 297.053 808.931 300.313 816.956 303.924L796.041 342.444C789.421 339.535 782.299 336.876 774.675 334.469C767.051 331.961 759.077 329.804 750.751 327.999C742.425 326.193 733.798 324.789 724.871 323.786C716.043 322.682 707.015 322.131 697.787 322.131C684.646 322.131 673.812 323.084 665.286 324.99C656.86 326.895 650.139 329.353 645.124 332.362C640.108 335.271 636.597 338.582 634.591 342.293C632.685 345.904 631.732 349.516 631.732 353.127C631.732 360.149 634.892 365.916 641.211 370.43C647.531 374.844 657.161 377.051 670.101 377.051C675.317 377.051 681.286 376.7 688.006 375.998C694.828 375.195 701.95 374.342 709.373 373.44C716.896 372.537 724.52 371.734 732.244 371.032C740.068 370.23 747.641 369.828 754.964 369.828C768.807 369.828 781.045 371.383 791.678 374.493C802.411 377.603 811.389 382.066 818.611 387.884C825.834 393.602 831.301 400.574 835.012 408.799C838.724 416.924 840.579 426.053 840.579 436.184C840.579 449.726 837.42 461.814 831.1 472.447C824.881 482.979 815.953 491.907 804.317 499.23C792.781 506.452 778.838 511.969 762.487 515.781C746.137 519.492 727.93 521.348 707.868 521.348C694.627 521.348 681.687 520.495 669.048 518.79C656.408 517.185 644.271 514.878 632.635 511.869C621.099 508.759 610.065 505.098 599.532 500.885C589.1 496.571 579.42 491.857 570.492 486.741L595.921 448.071Z" fill="#54C9FF"/>
<path d="M595.921 448.071C604.447 452.886 613.074 457.249 621.801 461.162C630.629 464.973 639.757 468.234 649.186 470.942C658.615 473.55 668.496 475.556 678.828 476.961C689.26 478.365 700.345 479.067 712.081 479.067C726.225 479.067 738.262 478.164 748.193 476.359C758.124 474.453 766.199 471.895 772.418 468.685C778.738 465.375 783.302 461.463 786.111 456.949C789.02 452.435 790.474 447.519 790.474 442.203C790.474 433.676 786.913 426.956 779.791 422.04C772.669 417.025 761.685 414.517 746.839 414.517C740.319 414.517 733.447 414.968 726.225 415.871C719.003 416.674 711.68 417.576 704.257 418.58C696.934 419.583 689.662 420.536 682.439 421.438C675.317 422.241 668.596 422.642 662.277 422.642C651.744 422.642 641.613 421.288 631.883 418.58C622.253 415.871 613.676 411.809 606.153 406.392C598.73 400.975 592.811 394.204 588.398 386.079C583.984 377.954 581.777 368.474 581.777 357.641C581.777 351.221 582.63 344.851 584.335 338.531C586.141 332.212 588.949 326.193 592.761 320.476C596.673 314.657 601.689 309.291 607.808 304.376C613.927 299.36 621.3 295.047 629.926 291.436C638.654 287.824 648.685 285.016 660.02 283.009C671.455 280.903 684.445 279.85 698.99 279.85C709.523 279.85 720.106 280.451 730.739 281.655C741.372 282.759 751.704 284.364 761.735 286.47C771.866 288.577 781.597 291.135 790.925 294.144C800.254 297.053 808.931 300.313 816.956 303.924L796.041 342.444C789.421 339.535 782.299 336.876 774.675 334.469C767.051 331.961 759.077 329.804 750.751 327.999C742.425 326.193 733.798 324.789 724.871 323.786C716.043 322.682 707.015 322.131 697.787 322.131C684.646 322.131 673.812 323.084 665.286 324.99C656.86 326.895 650.139 329.353 645.124 332.362C640.108 335.271 636.597 338.582 634.591 342.293C632.685 345.904 631.732 349.516 631.732 353.127C631.732 360.149 634.892 365.916 641.211 370.43C647.531 374.844 657.161 377.051 670.101 377.051C675.317 377.051 681.286 376.7 688.006 375.998C694.828 375.195 701.95 374.342 709.373 373.44C716.896 372.537 724.52 371.734 732.244 371.032C740.068 370.23 747.641 369.828 754.964 369.828C768.807 369.828 781.045 371.383 791.678 374.493C802.411 377.603 811.389 382.066 818.611 387.884C825.834 393.602 831.301 400.574 835.012 408.799C838.724 416.924 840.579 426.053 840.579 436.184C840.579 449.726 837.42 461.814 831.1 472.447C824.881 482.979 815.953 491.907 804.317 499.23C792.781 506.452 778.838 511.969 762.487 515.781C746.137 519.492 727.93 521.348 707.868 521.348C694.627 521.348 681.687 520.495 669.048 518.79C656.408 517.185 644.271 514.878 632.635 511.869C621.099 508.759 610.065 505.098 599.532 500.885C589.1 496.571 579.42 491.857 570.492 486.741L595.921 448.071Z" fill="url(#paint0_radial_1370_1084)" fill-opacity="0.6"/>
<path d="M595.921 448.071C604.447 452.886 613.074 457.249 621.801 461.162C630.629 464.973 639.757 468.234 649.186 470.942C658.615 473.55 668.496 475.556 678.828 476.961C689.26 478.365 700.345 479.067 712.081 479.067C726.225 479.067 738.262 478.164 748.193 476.359C758.124 474.453 766.199 471.895 772.418 468.685C778.738 465.375 783.302 461.463 786.111 456.949C789.02 452.435 790.474 447.519 790.474 442.203C790.474 433.676 786.913 426.956 779.791 422.04C772.669 417.025 761.685 414.517 746.839 414.517C740.319 414.517 733.447 414.968 726.225 415.871C719.003 416.674 711.68 417.576 704.257 418.58C696.934 419.583 689.662 420.536 682.439 421.438C675.317 422.241 668.596 422.642 662.277 422.642C651.744 422.642 641.613 421.288 631.883 418.58C622.253 415.871 613.676 411.809 606.153 406.392C598.73 400.975 592.811 394.204 588.398 386.079C583.984 377.954 581.777 368.474 581.777 357.641C581.777 351.221 582.63 344.851 584.335 338.531C586.141 332.212 588.949 326.193 592.761 320.476C596.673 314.657 601.689 309.291 607.808 304.376C613.927 299.36 621.3 295.047 629.926 291.436C638.654 287.824 648.685 285.016 660.02 283.009C671.455 280.903 684.445 279.85 698.99 279.85C709.523 279.85 720.106 280.451 730.739 281.655C741.372 282.759 751.704 284.364 761.735 286.47C771.866 288.577 781.597 291.135 790.925 294.144C800.254 297.053 808.931 300.313 816.956 303.924L796.041 342.444C789.421 339.535 782.299 336.876 774.675 334.469C767.051 331.961 759.077 329.804 750.751 327.999C742.425 326.193 733.798 324.789 724.871 323.786C716.043 322.682 707.015 322.131 697.787 322.131C684.646 322.131 673.812 323.084 665.286 324.99C656.86 326.895 650.139 329.353 645.124 332.362C640.108 335.271 636.597 338.582 634.591 342.293C632.685 345.904 631.732 349.516 631.732 353.127C631.732 360.149 634.892 365.916 641.211 370.43C647.531 374.844 657.161 377.051 670.101 377.051C675.317 377.051 681.286 376.7 688.006 375.998C694.828 375.195 701.95 374.342 709.373 373.44C716.896 372.537 724.52 371.734 732.244 371.032C740.068 370.23 747.641 369.828 754.964 369.828C768.807 369.828 781.045 371.383 791.678 374.493C802.411 377.603 811.389 382.066 818.611 387.884C825.834 393.602 831.301 400.574 835.012 408.799C838.724 416.924 840.579 426.053 840.579 436.184C840.579 449.726 837.42 461.814 831.1 472.447C824.881 482.979 815.953 491.907 804.317 499.23C792.781 506.452 778.838 511.969 762.487 515.781C746.137 519.492 727.93 521.348 707.868 521.348C694.627 521.348 681.687 520.495 669.048 518.79C656.408 517.185 644.271 514.878 632.635 511.869C621.099 508.759 610.065 505.098 599.532 500.885C589.1 496.571 579.42 491.857 570.492 486.741L595.921 448.071Z" fill="url(#paint1_radial_1370_1084)" fill-opacity="0.5"/>
<path d="M286.226 448.071C294.752 452.886 303.379 457.249 312.106 461.162C320.933 464.973 330.062 468.234 339.491 470.942C348.92 473.55 358.801 475.556 369.133 476.961C379.565 478.365 390.649 479.067 402.386 479.067C416.53 479.067 428.567 478.164 438.498 476.359C448.428 474.453 456.503 471.895 462.723 468.685C469.042 465.375 473.606 461.463 476.415 456.949C479.324 452.435 480.779 447.519 480.779 442.203C480.779 433.676 477.218 426.956 470.096 422.04C462.974 417.025 451.989 414.517 437.143 414.517C430.623 414.517 423.752 414.968 416.53 415.871C409.307 416.674 401.984 417.576 394.561 418.58C387.239 419.583 379.966 420.536 372.744 421.438C365.622 422.241 358.901 422.642 352.581 422.642C342.049 422.642 331.917 421.288 322.187 418.58C312.557 415.871 303.981 411.809 296.457 406.392C289.034 400.975 283.116 394.204 278.702 386.079C274.289 377.954 272.082 368.474 272.082 357.641C272.082 351.221 272.934 344.851 274.64 338.531C276.445 332.212 279.254 326.193 283.066 320.476C286.978 314.657 291.994 309.291 298.113 304.376C304.232 299.36 311.604 295.047 320.231 291.436C328.958 287.824 338.989 285.016 350.324 283.009C361.76 280.903 374.75 279.85 389.295 279.85C399.828 279.85 410.411 280.451 421.044 281.655C431.676 282.759 442.009 284.364 452.04 286.47C462.171 288.577 471.901 291.135 481.23 294.144C490.559 297.053 499.236 300.313 507.261 303.924L486.346 342.444C479.725 339.535 472.603 336.876 464.98 334.469C457.356 331.961 449.381 329.804 441.056 327.999C432.73 326.193 424.103 324.789 415.175 323.786C406.348 322.682 397.32 322.131 388.091 322.131C374.951 322.131 364.117 323.084 355.591 324.99C347.165 326.895 340.444 329.353 335.428 332.362C330.413 335.271 326.902 338.582 324.896 342.293C322.99 345.904 322.037 349.516 322.037 353.127C322.037 360.149 325.196 365.916 331.516 370.43C337.836 374.844 347.465 377.051 360.406 377.051C365.622 377.051 371.59 376.7 378.311 375.998C385.132 375.195 392.254 374.342 399.677 373.44C407.201 372.537 414.824 371.734 422.548 371.032C430.372 370.23 437.946 369.828 445.269 369.828C459.112 369.828 471.349 371.383 481.982 374.493C492.716 377.603 501.694 382.066 508.916 387.884C516.138 393.602 521.605 400.574 525.317 408.799C529.028 416.924 530.884 426.053 530.884 436.184C530.884 449.726 527.724 461.814 521.405 472.447C515.185 482.979 506.258 491.907 494.622 499.23C483.086 506.452 469.143 511.969 452.792 515.781C436.441 519.492 418.235 521.348 398.173 521.348C384.932 521.348 371.992 520.495 359.352 518.79C346.713 517.185 334.576 514.878 322.939 511.869C311.404 508.759 300.37 505.098 289.837 500.885C279.405 496.571 269.725 491.857 260.797 486.741L286.226 448.071Z" fill="#54C9FF"/>
<path d="M286.226 448.071C294.752 452.886 303.379 457.249 312.106 461.162C320.933 464.973 330.062 468.234 339.491 470.942C348.92 473.55 358.801 475.556 369.133 476.961C379.565 478.365 390.649 479.067 402.386 479.067C416.53 479.067 428.567 478.164 438.498 476.359C448.428 474.453 456.503 471.895 462.723 468.685C469.042 465.375 473.606 461.463 476.415 456.949C479.324 452.435 480.779 447.519 480.779 442.203C480.779 433.676 477.218 426.956 470.096 422.04C462.974 417.025 451.989 414.517 437.143 414.517C430.623 414.517 423.752 414.968 416.53 415.871C409.307 416.674 401.984 417.576 394.561 418.58C387.239 419.583 379.966 420.536 372.744 421.438C365.622 422.241 358.901 422.642 352.581 422.642C342.049 422.642 331.917 421.288 322.187 418.58C312.557 415.871 303.981 411.809 296.457 406.392C289.034 400.975 283.116 394.204 278.702 386.079C274.289 377.954 272.082 368.474 272.082 357.641C272.082 351.221 272.934 344.851 274.64 338.531C276.445 332.212 279.254 326.193 283.066 320.476C286.978 314.657 291.994 309.291 298.113 304.376C304.232 299.36 311.604 295.047 320.231 291.436C328.958 287.824 338.989 285.016 350.324 283.009C361.76 280.903 374.75 279.85 389.295 279.85C399.828 279.85 410.411 280.451 421.044 281.655C431.676 282.759 442.009 284.364 452.04 286.47C462.171 288.577 471.901 291.135 481.23 294.144C490.559 297.053 499.236 300.313 507.261 303.924L486.346 342.444C479.725 339.535 472.603 336.876 464.98 334.469C457.356 331.961 449.381 329.804 441.056 327.999C432.73 326.193 424.103 324.789 415.175 323.786C406.348 322.682 397.32 322.131 388.091 322.131C374.951 322.131 364.117 323.084 355.591 324.99C347.165 326.895 340.444 329.353 335.428 332.362C330.413 335.271 326.902 338.582 324.896 342.293C322.99 345.904 322.037 349.516 322.037 353.127C322.037 360.149 325.196 365.916 331.516 370.43C337.836 374.844 347.465 377.051 360.406 377.051C365.622 377.051 371.59 376.7 378.311 375.998C385.132 375.195 392.254 374.342 399.677 373.44C407.201 372.537 414.824 371.734 422.548 371.032C430.372 370.23 437.946 369.828 445.269 369.828C459.112 369.828 471.349 371.383 481.982 374.493C492.716 377.603 501.694 382.066 508.916 387.884C516.138 393.602 521.605 400.574 525.317 408.799C529.028 416.924 530.884 426.053 530.884 436.184C530.884 449.726 527.724 461.814 521.405 472.447C515.185 482.979 506.258 491.907 494.622 499.23C483.086 506.452 469.143 511.969 452.792 515.781C436.441 519.492 418.235 521.348 398.173 521.348C384.932 521.348 371.992 520.495 359.352 518.79C346.713 517.185 334.576 514.878 322.939 511.869C311.404 508.759 300.37 505.098 289.837 500.885C279.405 496.571 269.725 491.857 260.797 486.741L286.226 448.071Z" fill="url(#paint2_radial_1370_1084)" fill-opacity="0.6"/>
<path d="M286.226 448.071C294.752 452.886 303.379 457.249 312.106 461.162C320.933 464.973 330.062 468.234 339.491 470.942C348.92 473.55 358.801 475.556 369.133 476.961C379.565 478.365 390.649 479.067 402.386 479.067C416.53 479.067 428.567 478.164 438.498 476.359C448.428 474.453 456.503 471.895 462.723 468.685C469.042 465.375 473.606 461.463 476.415 456.949C479.324 452.435 480.779 447.519 480.779 442.203C480.779 433.676 477.218 426.956 470.096 422.04C462.974 417.025 451.989 414.517 437.143 414.517C430.623 414.517 423.752 414.968 416.53 415.871C409.307 416.674 401.984 417.576 394.561 418.58C387.239 419.583 379.966 420.536 372.744 421.438C365.622 422.241 358.901 422.642 352.581 422.642C342.049 422.642 331.917 421.288 322.187 418.58C312.557 415.871 303.981 411.809 296.457 406.392C289.034 400.975 283.116 394.204 278.702 386.079C274.289 377.954 272.082 368.474 272.082 357.641C272.082 351.221 272.934 344.851 274.64 338.531C276.445 332.212 279.254 326.193 283.066 320.476C286.978 314.657 291.994 309.291 298.113 304.376C304.232 299.36 311.604 295.047 320.231 291.436C328.958 287.824 338.989 285.016 350.324 283.009C361.76 280.903 374.75 279.85 389.295 279.85C399.828 279.85 410.411 280.451 421.044 281.655C431.676 282.759 442.009 284.364 452.04 286.47C462.171 288.577 471.901 291.135 481.23 294.144C490.559 297.053 499.236 300.313 507.261 303.924L486.346 342.444C479.725 339.535 472.603 336.876 464.98 334.469C457.356 331.961 449.381 329.804 441.056 327.999C432.73 326.193 424.103 324.789 415.175 323.786C406.348 322.682 397.32 322.131 388.091 322.131C374.951 322.131 364.117 323.084 355.591 324.99C347.165 326.895 340.444 329.353 335.428 332.362C330.413 335.271 326.902 338.582 324.896 342.293C322.99 345.904 322.037 349.516 322.037 353.127C322.037 360.149 325.196 365.916 331.516 370.43C337.836 374.844 347.465 377.051 360.406 377.051C365.622 377.051 371.59 376.7 378.311 375.998C385.132 375.195 392.254 374.342 399.677 373.44C407.201 372.537 414.824 371.734 422.548 371.032C430.372 370.23 437.946 369.828 445.269 369.828C459.112 369.828 471.349 371.383 481.982 374.493C492.716 377.603 501.694 382.066 508.916 387.884C516.138 393.602 521.605 400.574 525.317 408.799C529.028 416.924 530.884 426.053 530.884 436.184C530.884 449.726 527.724 461.814 521.405 472.447C515.185 482.979 506.258 491.907 494.622 499.23C483.086 506.452 469.143 511.969 452.792 515.781C436.441 519.492 418.235 521.348 398.173 521.348C384.932 521.348 371.992 520.495 359.352 518.79C346.713 517.185 334.576 514.878 322.939 511.869C311.404 508.759 300.37 505.098 289.837 500.885C279.405 496.571 269.725 491.857 260.797 486.741L286.226 448.071Z" fill="url(#paint3_radial_1370_1084)" fill-opacity="0.5"/>
<path d="M17.3047 282.858H217.575V324.688H65.0025V371.634H200.121V410.905H65.0025V476.358H220.735V518.037H17.3047V282.858Z" fill="#54C9FF"/>
<path d="M17.3047 282.858H217.575V324.688H65.0025V371.634H200.121V410.905H65.0025V476.358H220.735V518.037H17.3047V282.858Z" fill="url(#paint4_radial_1370_1084)" fill-opacity="0.6"/>
<path d="M17.3047 282.858H217.575V324.688H65.0025V371.634H200.121V410.905H65.0025V476.358H220.735V518.037H17.3047V282.858Z" fill="url(#paint5_radial_1370_1084)" fill-opacity="0.5"/>
<path d="M582.984 119.019C582.984 102.267 586.144 86.6686 592.464 72.2239C598.783 57.6788 607.912 45.0898 619.849 34.4568C631.886 23.7235 646.531 15.2974 663.785 9.17845C681.139 3.05948 700.749 0 722.617 0C741.777 0 759.331 1.95606 775.28 5.86819C791.33 9.68 806.226 15.5482 819.969 23.4728L798.001 59.5847C793.888 56.8763 789.123 54.4688 783.706 52.3623C778.39 50.2558 772.672 48.5003 766.553 47.096C760.535 45.5913 754.265 44.4377 747.745 43.6352C741.325 42.8328 734.955 42.4315 728.636 42.4315C713.389 42.4315 699.796 44.3374 687.859 48.1492C675.922 51.8607 665.841 57.1271 657.616 63.9482C649.49 70.669 643.271 78.7441 638.958 88.1733C634.745 97.5022 632.638 107.784 632.638 119.019C632.638 130.655 634.845 141.338 639.259 151.068C643.672 160.798 650.042 169.225 658.368 176.347C666.794 183.368 677.026 188.885 689.063 192.898C701.201 196.81 714.893 198.766 730.14 198.766C737.062 198.766 743.933 198.265 750.754 197.261C757.575 196.258 764.146 194.904 770.465 193.199C776.885 191.393 783.054 189.287 788.973 186.879C794.891 184.371 800.408 181.663 805.524 178.754L827.492 214.866C814.652 223.091 799.806 229.562 782.954 234.276C766.102 238.89 748.196 241.198 729.238 241.198C705.063 241.198 683.847 238.088 665.59 231.869C647.334 225.549 632.087 216.922 619.849 205.988C607.611 194.954 598.382 182.014 592.163 167.168C586.044 152.222 582.984 136.172 582.984 119.019Z" fill="#54C9FF"/>
<path d="M582.984 119.019C582.984 102.267 586.144 86.6686 592.464 72.2239C598.783 57.6788 607.912 45.0898 619.849 34.4568C631.886 23.7235 646.531 15.2974 663.785 9.17845C681.139 3.05948 700.749 0 722.617 0C741.777 0 759.331 1.95606 775.28 5.86819C791.33 9.68 806.226 15.5482 819.969 23.4728L798.001 59.5847C793.888 56.8763 789.123 54.4688 783.706 52.3623C778.39 50.2558 772.672 48.5003 766.553 47.096C760.535 45.5913 754.265 44.4377 747.745 43.6352C741.325 42.8328 734.955 42.4315 728.636 42.4315C713.389 42.4315 699.796 44.3374 687.859 48.1492C675.922 51.8607 665.841 57.1271 657.616 63.9482C649.49 70.669 643.271 78.7441 638.958 88.1733C634.745 97.5022 632.638 107.784 632.638 119.019C632.638 130.655 634.845 141.338 639.259 151.068C643.672 160.798 650.042 169.225 658.368 176.347C666.794 183.368 677.026 188.885 689.063 192.898C701.201 196.81 714.893 198.766 730.14 198.766C737.062 198.766 743.933 198.265 750.754 197.261C757.575 196.258 764.146 194.904 770.465 193.199C776.885 191.393 783.054 189.287 788.973 186.879C794.891 184.371 800.408 181.663 805.524 178.754L827.492 214.866C814.652 223.091 799.806 229.562 782.954 234.276C766.102 238.89 748.196 241.198 729.238 241.198C705.063 241.198 683.847 238.088 665.59 231.869C647.334 225.549 632.087 216.922 619.849 205.988C607.611 194.954 598.382 182.014 592.163 167.168C586.044 152.222 582.984 136.172 582.984 119.019Z" fill="url(#paint6_radial_1370_1084)" fill-opacity="0.6"/>
<path d="M582.984 119.019C582.984 102.267 586.144 86.6686 592.464 72.2239C598.783 57.6788 607.912 45.0898 619.849 34.4568C631.886 23.7235 646.531 15.2974 663.785 9.17845C681.139 3.05948 700.749 0 722.617 0C741.777 0 759.331 1.95606 775.28 5.86819C791.33 9.68 806.226 15.5482 819.969 23.4728L798.001 59.5847C793.888 56.8763 789.123 54.4688 783.706 52.3623C778.39 50.2558 772.672 48.5003 766.553 47.096C760.535 45.5913 754.265 44.4377 747.745 43.6352C741.325 42.8328 734.955 42.4315 728.636 42.4315C713.389 42.4315 699.796 44.3374 687.859 48.1492C675.922 51.8607 665.841 57.1271 657.616 63.9482C649.49 70.669 643.271 78.7441 638.958 88.1733C634.745 97.5022 632.638 107.784 632.638 119.019C632.638 130.655 634.845 141.338 639.259 151.068C643.672 160.798 650.042 169.225 658.368 176.347C666.794 183.368 677.026 188.885 689.063 192.898C701.201 196.81 714.893 198.766 730.14 198.766C737.062 198.766 743.933 198.265 750.754 197.261C757.575 196.258 764.146 194.904 770.465 193.199C776.885 191.393 783.054 189.287 788.973 186.879C794.891 184.371 800.408 181.663 805.524 178.754L827.492 214.866C814.652 223.091 799.806 229.562 782.954 234.276C766.102 238.89 748.196 241.198 729.238 241.198C705.063 241.198 683.847 238.088 665.59 231.869C647.334 225.549 632.087 216.922 619.849 205.988C607.611 194.954 598.382 182.014 592.163 167.168C586.044 152.222 582.984 136.172 582.984 119.019Z" fill="url(#paint7_radial_1370_1084)" fill-opacity="0.5"/>
<path d="M298.562 119.019C298.562 102.267 301.722 86.6686 308.042 72.2239C314.361 57.6788 323.49 45.0898 335.427 34.4568C347.464 23.7235 362.109 15.2974 379.363 9.17845C396.717 3.05948 416.327 0 438.195 0C457.355 0 474.909 1.95606 490.859 5.86819C506.908 9.68 521.804 15.5482 535.547 23.4728L513.579 59.5847C509.466 56.8763 504.701 54.4688 499.285 52.3623C493.968 50.2558 488.25 48.5003 482.131 47.096C476.113 45.5913 469.843 44.4377 463.323 43.6352C456.903 42.8328 450.534 42.4315 444.214 42.4315C428.967 42.4315 415.375 44.3374 403.438 48.1492C391.501 51.8607 381.419 57.1271 373.194 63.9482C365.069 70.669 358.849 78.7441 354.536 88.1733C350.323 97.5022 348.216 107.784 348.216 119.019C348.216 130.655 350.423 141.338 354.837 151.068C359.251 160.798 365.62 169.225 373.946 176.347C382.372 183.368 392.604 188.885 404.641 192.898C416.779 196.81 430.471 198.766 445.719 198.766C452.64 198.766 459.511 198.265 466.332 197.261C473.154 196.258 479.724 194.904 486.044 193.199C492.463 191.393 498.633 189.287 504.551 186.879C510.469 184.371 515.986 181.663 521.102 178.754L543.07 214.866C530.231 223.091 515.385 229.562 498.532 234.276C481.68 238.89 463.775 241.198 444.816 241.198C420.641 241.198 399.425 238.088 381.169 231.869C362.912 225.549 347.665 216.922 335.427 205.988C323.189 194.954 313.96 182.014 307.741 167.168C301.622 152.222 298.562 136.172 298.562 119.019Z" fill="#54C9FF"/>
<path d="M298.562 119.019C298.562 102.267 301.722 86.6686 308.042 72.2239C314.361 57.6788 323.49 45.0898 335.427 34.4568C347.464 23.7235 362.109 15.2974 379.363 9.17845C396.717 3.05948 416.327 0 438.195 0C457.355 0 474.909 1.95606 490.859 5.86819C506.908 9.68 521.804 15.5482 535.547 23.4728L513.579 59.5847C509.466 56.8763 504.701 54.4688 499.285 52.3623C493.968 50.2558 488.25 48.5003 482.131 47.096C476.113 45.5913 469.843 44.4377 463.323 43.6352C456.903 42.8328 450.534 42.4315 444.214 42.4315C428.967 42.4315 415.375 44.3374 403.438 48.1492C391.501 51.8607 381.419 57.1271 373.194 63.9482C365.069 70.669 358.849 78.7441 354.536 88.1733C350.323 97.5022 348.216 107.784 348.216 119.019C348.216 130.655 350.423 141.338 354.837 151.068C359.251 160.798 365.62 169.225 373.946 176.347C382.372 183.368 392.604 188.885 404.641 192.898C416.779 196.81 430.471 198.766 445.719 198.766C452.64 198.766 459.511 198.265 466.332 197.261C473.154 196.258 479.724 194.904 486.044 193.199C492.463 191.393 498.633 189.287 504.551 186.879C510.469 184.371 515.986 181.663 521.102 178.754L543.07 214.866C530.231 223.091 515.385 229.562 498.532 234.276C481.68 238.89 463.775 241.198 444.816 241.198C420.641 241.198 399.425 238.088 381.169 231.869C362.912 225.549 347.665 216.922 335.427 205.988C323.189 194.954 313.96 182.014 307.741 167.168C301.622 152.222 298.562 136.172 298.562 119.019Z" fill="url(#paint8_radial_1370_1084)" fill-opacity="0.6"/>
<path d="M298.562 119.019C298.562 102.267 301.722 86.6686 308.042 72.2239C314.361 57.6788 323.49 45.0898 335.427 34.4568C347.464 23.7235 362.109 15.2974 379.363 9.17845C396.717 3.05948 416.327 0 438.195 0C457.355 0 474.909 1.95606 490.859 5.86819C506.908 9.68 521.804 15.5482 535.547 23.4728L513.579 59.5847C509.466 56.8763 504.701 54.4688 499.285 52.3623C493.968 50.2558 488.25 48.5003 482.131 47.096C476.113 45.5913 469.843 44.4377 463.323 43.6352C456.903 42.8328 450.534 42.4315 444.214 42.4315C428.967 42.4315 415.375 44.3374 403.438 48.1492C391.501 51.8607 381.419 57.1271 373.194 63.9482C365.069 70.669 358.849 78.7441 354.536 88.1733C350.323 97.5022 348.216 107.784 348.216 119.019C348.216 130.655 350.423 141.338 354.837 151.068C359.251 160.798 365.62 169.225 373.946 176.347C382.372 183.368 392.604 188.885 404.641 192.898C416.779 196.81 430.471 198.766 445.719 198.766C452.64 198.766 459.511 198.265 466.332 197.261C473.154 196.258 479.724 194.904 486.044 193.199C492.463 191.393 498.633 189.287 504.551 186.879C510.469 184.371 515.986 181.663 521.102 178.754L543.07 214.866C530.231 223.091 515.385 229.562 498.532 234.276C481.68 238.89 463.775 241.198 444.816 241.198C420.641 241.198 399.425 238.088 381.169 231.869C362.912 225.549 347.665 216.922 335.427 205.988C323.189 194.954 313.96 182.014 307.741 167.168C301.622 152.222 298.562 136.172 298.562 119.019Z" fill="url(#paint9_radial_1370_1084)" fill-opacity="0.5"/>
<path d="M110.442 2.8584H160.999L274.752 238.037H224.646L205.838 198.465H68.4622L50.2558 238.037H0L110.442 2.8584ZM187.03 159.193L136.172 52.3618L86.6686 159.193H187.03Z" fill="#54C9FF"/>
<path d="M110.442 2.8584H160.999L274.752 238.037H224.646L205.838 198.465H68.4622L50.2558 238.037H0L110.442 2.8584ZM187.03 159.193L136.172 52.3618L86.6686 159.193H187.03Z" fill="url(#paint10_radial_1370_1084)" fill-opacity="0.6"/>
<path d="M110.442 2.8584H160.999L274.752 238.037H224.646L205.838 198.465H68.4622L50.2558 238.037H0L110.442 2.8584ZM187.03 159.193L136.172 52.3618L86.6686 159.193H187.03Z" fill="url(#paint11_radial_1370_1084)" fill-opacity="0.5"/>
<defs>
<radialGradient id="paint0_radial_1370_1084" cx="0" cy="0" r="1" gradientTransform="matrix(253.244 -135.273 343.587 603.118 56.331 418.408)" gradientUnits="userSpaceOnUse">
<stop offset="0.0520833" stop-color="#000E1C"/>
<stop offset="0.5" stop-color="#002137" stop-opacity="0"/>
</radialGradient>
<radialGradient id="paint1_radial_1370_1084" cx="0" cy="0" r="1" gradientTransform="matrix(-149.432 -28.1074 59.7027 -365.292 819.21 202.915)" gradientUnits="userSpaceOnUse">
<stop offset="0.447917"/>
<stop offset="1" stop-opacity="0"/>
</radialGradient>
<radialGradient id="paint2_radial_1370_1084" cx="0" cy="0" r="1" gradientTransform="matrix(253.244 -135.273 343.587 603.118 56.3316 418.408)" gradientUnits="userSpaceOnUse">
<stop offset="0.0520833" stop-color="#000E1C"/>
<stop offset="0.5" stop-color="#002137" stop-opacity="0"/>
</radialGradient>
<radialGradient id="paint3_radial_1370_1084" cx="0" cy="0" r="1" gradientTransform="matrix(-149.432 -28.1074 59.7027 -365.292 819.211 202.915)" gradientUnits="userSpaceOnUse">
<stop offset="0.447917"/>
<stop offset="1" stop-opacity="0"/>
</radialGradient>
<radialGradient id="paint4_radial_1370_1084" cx="0" cy="0" r="1" gradientTransform="matrix(253.244 -135.273 343.587 603.118 56.3301 418.408)" gradientUnits="userSpaceOnUse">
<stop offset="0.0520833" stop-color="#000E1C"/>
<stop offset="0.5" stop-color="#002137" stop-opacity="0"/>
</radialGradient>
<radialGradient id="paint5_radial_1370_1084" cx="0" cy="0" r="1" gradientTransform="matrix(-149.432 -28.1074 59.7027 -365.292 819.209 202.914)" gradientUnits="userSpaceOnUse">
<stop offset="0.447917"/>
<stop offset="1" stop-opacity="0"/>
</radialGradient>
<radialGradient id="paint6_radial_1370_1084" cx="0" cy="0" r="1" gradientTransform="matrix(253.244 -135.273 343.587 603.118 56.3344 418.408)" gradientUnits="userSpaceOnUse">
<stop offset="0.0520833" stop-color="#000E1C"/>
<stop offset="0.5" stop-color="#002137" stop-opacity="0"/>
</radialGradient>
<radialGradient id="paint7_radial_1370_1084" cx="0" cy="0" r="1" gradientTransform="matrix(-149.432 -28.1074 59.7027 -365.292 819.214 202.915)" gradientUnits="userSpaceOnUse">
<stop offset="0.447917"/>
<stop offset="1" stop-opacity="0"/>
</radialGradient>
<radialGradient id="paint8_radial_1370_1084" cx="0" cy="0" r="1" gradientTransform="matrix(253.244 -135.273 343.587 603.118 56.3301 418.408)" gradientUnits="userSpaceOnUse">
<stop offset="0.0520833" stop-color="#000E1C"/>
<stop offset="0.5" stop-color="#002137" stop-opacity="0"/>
</radialGradient>
<radialGradient id="paint9_radial_1370_1084" cx="0" cy="0" r="1" gradientTransform="matrix(-149.432 -28.1074 59.7027 -365.292 819.209 202.915)" gradientUnits="userSpaceOnUse">
<stop offset="0.447917"/>
<stop offset="1" stop-opacity="0"/>
</radialGradient>
<radialGradient id="paint10_radial_1370_1084" cx="0" cy="0" r="1" gradientTransform="matrix(253.244 -135.273 343.587 603.118 56.329 418.408)" gradientUnits="userSpaceOnUse">
<stop offset="0.0520833" stop-color="#000E1C"/>
<stop offset="0.5" stop-color="#002137" stop-opacity="0"/>
</radialGradient>
<radialGradient id="paint11_radial_1370_1084" cx="0" cy="0" r="1" gradientTransform="matrix(-149.432 -28.1074 59.7027 -365.292 819.208 202.914)" gradientUnits="userSpaceOnUse">
<stop offset="0.447917"/>
<stop offset="1" stop-opacity="0"/>
</radialGradient>
</defs>
</svg>
