<svg width="255" height="265" viewBox="0 0 255 265" fill="none" xmlns="http://www.w3.org/2000/svg">
<circle cx="17.7755" cy="17.7755" r="17.7755" fill="#005595"/>
<circle cx="72.4215" cy="17.7755" r="17.7755" fill="#005595"/>
<circle cx="127.067" cy="17.7755" r="17.7755" fill="#005595"/>
<circle cx="181.713" cy="17.7755" r="17.7755" fill="#005595"/>
<circle cx="236.359" cy="17.7755" r="17.7755" fill="#005595"/>
<circle cx="17.7755" cy="63.4837" r="17.7755" fill="#005595"/>
<circle cx="72.4215" cy="63.4837" r="17.7755" fill="#005595"/>
<circle cx="127.067" cy="63.4837" r="17.7755" fill="#005595"/>
<circle cx="181.713" cy="63.4837" r="17.7755" fill="#005595"/>
<circle cx="236.359" cy="63.4837" r="17.7755" fill="#005595"/>
<circle cx="17.7755" cy="109.192" r="17.7755" fill="#005595"/>
<circle cx="72.4215" cy="109.192" r="17.7755" fill="#005595"/>
<circle cx="127.067" cy="109.192" r="17.7755" fill="#005595"/>
<circle cx="181.713" cy="109.192" r="17.7755" fill="#005595"/>
<circle cx="236.359" cy="109.192" r="17.7755" fill="#005595"/>
<circle cx="17.7755" cy="154.9" r="17.7755" fill="#005595"/>
<circle cx="72.4215" cy="154.9" r="17.7755" fill="#005595"/>
<circle cx="127.067" cy="154.9" r="17.7755" fill="#005595"/>
<circle cx="181.713" cy="154.9" r="17.7755" fill="#005595"/>
<circle cx="236.359" cy="154.9" r="17.7755" fill="#005595"/>
<circle cx="17.7755" cy="200.608" r="17.7755" fill="#005595"/>
<circle cx="72.4215" cy="200.608" r="17.7755" fill="#005595"/>
<circle cx="127.067" cy="200.608" r="17.7755" fill="#005595"/>
<circle cx="181.713" cy="200.608" r="17.7755" fill="#005595"/>
<circle cx="236.359" cy="200.608" r="17.7755" fill="#005595"/>
<circle cx="17.7755" cy="246.316" r="17.7755" fill="#005595"/>
<circle cx="72.4215" cy="246.316" r="17.7755" fill="#005595"/>
<circle cx="127.067" cy="246.316" r="17.7755" fill="#005595"/>
<circle cx="181.713" cy="246.316" r="17.7755" fill="#005595"/>
<circle cx="236.359" cy="246.316" r="17.7755" fill="#005595"/>
</svg>
