<svg width="235" height="27" viewBox="0 0 235 27" fill="none" xmlns="http://www.w3.org/2000/svg">
<path d="M219.829 14.7479H209.518V11.3905H219.796L219.829 14.7479Z" fill="#E5F2F8"/>
<path d="M222.516 3.90562H209.768L208.522 0.544922H222.516V3.90562Z" fill="#E5F2F8"/>
<path d="M222.516 25.5642H209.768L208.522 22.2035H222.516V25.5642Z" fill="#E5F2F8"/>
<path d="M195.641 16.6893L201.772 25.5642H197.23L191.239 17.3158" fill="#E5F2F8"/>
<path d="M190.881 16.8295L192.679 19.2929L196.983 18.6273L195.156 15.991L190.881 16.8295Z" fill="#E5F2F8"/>
<path d="M191.266 17.2929H185.305V13.6353H191.504C194.548 13.6353 196.757 12.1344 196.757 8.96624C196.757 5.79805 194.591 4.21232 191.253 4.21232H185.305V0.544922H191.478C197.351 0.544922 201.067 3.71311 201.067 8.92383C201.067 12.8033 198.982 15.4299 195.772 16.6371C194.33 17.1602 192.797 17.3823 191.266 17.2897" fill="#E5F2F8"/>
<path d="M76.8068 13.8866C76.8068 21.3095 72.5129 26.145 65.3412 26.145C57.5855 26.145 52.874 20.3078 52.874 13.0937C52.874 5.79805 57.7682 0.0032959 65.4685 0.0032959C71.6678 0.0032959 74.389 3.21064 74.389 3.21064L71.9713 6.3821C71.9713 6.3821 69.6384 3.91541 65.4685 3.91541C60.4209 3.91541 57.1287 7.91888 57.1287 13.0872C57.1287 18.2555 60.3393 22.1872 65.3412 22.1872C69.7199 22.1872 72.4313 19.2702 72.4313 15.0579V14.4054L76.8068 13.8866Z" fill="#E5F2F8"/>
<path d="M152.183 23.0844C152.183 23.0844 149.779 26.1449 144.026 26.1449C136.355 26.1449 131.393 20.3078 131.393 13.0937C131.399 5.79802 136.352 0 144.023 0C149.779 0 152.448 3.12578 152.448 3.12578L150.069 6.33638C148.485 4.77589 146.348 3.90555 144.124 3.91538C139.161 3.91538 135.699 7.91885 135.699 13.0871C135.699 18.2554 139.145 22.1871 144.124 22.1871C146.345 22.2064 148.486 21.3536 150.085 19.8118L152.183 23.0844Z" fill="#E5F2F8"/>
<path d="M226.161 4.24172C226.525 4.51549 226.966 4.66635 227.421 4.67242C228.021 4.67242 228.282 4.42118 228.282 4.05901C228.282 3.69683 228.073 3.54675 227.274 3.30203C226.279 3.00512 225.796 2.67231 225.796 1.97407C225.796 1.21057 226.377 0.704834 227.427 0.704834C228.533 0.704834 228.977 1.15837 228.977 1.15837L228.579 1.75872C228.248 1.50864 227.842 1.37759 227.427 1.38676C226.925 1.38676 226.605 1.58906 226.605 1.9447C226.605 2.24814 226.843 2.39823 227.584 2.62011C228.661 2.92355 229.091 3.31509 229.091 4.0068C229.091 4.76051 228.55 5.35434 227.437 5.35434C226.826 5.3896 226.224 5.19133 225.753 4.79966L226.161 4.24172Z" fill="#E5F2F8"/>
<path d="M233.451 2.16004L232.168 3.83713H231.894L230.619 2.18288V5.25972H229.888V0.8125H230.449L232.028 2.88765L233.617 0.8125H234.178V5.25972H233.451V2.16004Z" fill="#E5F2F8"/>
<path d="M158.445 24.6277L158.426 24.6309L158.063 25.5641H158.08L158.445 24.6277Z" fill="#E5F2F8"/>
<path d="M174.048 25.5641H174.068L173.464 24.0894L174.048 25.5641Z" fill="#E5F2F8"/>
<path d="M11.9409 12.0333L14.4794 15.6746L19.9935 8.25821V0.544922L11.9409 12.0333Z" fill="#E5F2F8"/>
<path d="M11.9418 12.0333L3.88916 0.544922V8.25821L9.40332 15.6746L10.777 17.5246H13.1033L14.4803 15.6746L11.9418 12.0333Z" fill="#E5F2F8"/>
<path d="M0 0.544922V25.5642H3.88927V8.25821V0.544922H0Z" fill="#E5F2F8"/>
<path d="M19.9941 0.544922V8.25821V25.5642H23.8834V0.544922H19.9941Z" fill="#E5F2F8"/>
<path d="M3.88916 0.544922L6.03609 3.61197V11.1491L3.88916 8.25821V0.544922Z" fill="#E5F2F8"/>
<path d="M19.9935 0.544922L17.8433 3.61197V11.1491L19.9935 8.25821V0.544922Z" fill="#E5F2F8"/>
<path d="M11.9409 12.0333L13.295 10.1017L16.0194 13.6059L14.4794 15.6746L11.9409 12.0333Z" fill="#E5F2F8"/>
<path d="M72.2871 13.9779C72.2871 13.9779 72.6688 15.009 72.2349 16.934H76.5092C76.729 15.9646 76.8287 14.9717 76.8061 13.9779H72.2871Z" fill="#E5F2F8"/>
<path d="M81.061 0.544922V25.5642H85.1885V13.4135V7.80142V0.544922H81.061Z" fill="#E5F2F8"/>
<path d="M85.1885 0.544922V7.80142L98.5269 25.5642V18.2196L85.1885 0.544922Z" fill="#E5F2F8"/>
<path d="M98.5301 0.544922V18.2228L98.5269 18.2196V25.5642H102.661V0.544922H98.5301Z" fill="#E5F2F8"/>
<path d="M85.1885 0.544922V7.80142L86.8264 9.98098V2.71469L85.1885 0.544922Z" fill="#E5F2F8"/>
<path d="M131.547 10.8978C131.547 10.8978 134.186 17.3093 136.565 17.3093C136.565 17.3093 138.017 20.8037 141.339 21.7336C144.66 22.6635 147.796 22.0828 150.07 19.8086C150.07 19.8086 150.579 21.5085 148.194 22.5004C145.809 23.4923 141.763 24.1807 139.329 23.2835C136.895 22.3862 133.217 17.8607 132.594 16.2782C131.971 14.6957 131.485 11.3024 131.547 10.8978Z" fill="#E5F2F8"/>
<path d="M150.069 19.8086C147.158 22.5591 144.072 22.8397 141.481 22.2198C141.285 22.1708 141.09 22.1252 140.884 22.0632L140.786 22.0371C140.109 21.8233 139.447 21.5627 138.806 21.2573L138.665 21.1887C138.427 21.0713 138.199 20.9473 137.974 20.82C137.869 20.7613 137.768 20.7058 137.673 20.6471C133.902 18.3631 132.156 14.7186 131.546 10.8978C131.451 11.6261 131.398 12.3593 131.389 13.0937C131.387 13.1306 131.387 13.1677 131.389 13.2046C131.441 20.2197 136.065 25.7958 143.364 26.145C149.563 26.4419 152.431 22.9343 152.431 22.9343L150.069 19.8086Z" fill="#E5F2F8"/>
<path d="M185.301 4.21559V0.544922H181.174V25.5642H185.301V17.306V13.6386V4.21559Z" fill="#E5F2F8"/>
<path d="M187.461 0.544922H185.305V4.2319H187.461V0.544922Z" fill="#E5F2F8"/>
<path d="M212.344 0.544922H210.188V3.90562H212.344V0.544922Z" fill="#E5F2F8"/>
<path d="M212.344 11.3481H210.188V14.7088H212.344V11.3481Z" fill="#E5F2F8"/>
<path d="M212.344 22.2035H210.188V25.5642H212.344V22.2035Z" fill="#E5F2F8"/>
<path d="M187.461 13.6223H185.305V17.3093H187.461V13.6223Z" fill="#E5F2F8"/>
<path d="M174.868 14.7708L174.616 16.3597L173.941 14.7708H174.868Z" fill="#E5F2F8"/>
<path d="M159.045 24.6277L159.022 24.6309L158.66 25.5641H158.676L159.045 24.6277Z" fill="#E5F2F8"/>
<path d="M174.645 25.5641H174.668L174.064 24.0894L174.645 25.5641Z" fill="#E5F2F8"/>
<path d="M167.336 7.91567L166.318 5.34131L167.336 7.91567Z" fill="#E5F2F8"/>
<path d="M169.189 3.27916L168.028 0.544922L169.189 3.27916Z" fill="#E5F2F8"/>
<path d="M169.189 3.27916L168.028 0.544922L166.318 5.34126L167.336 7.91562L173.738 24.0894L174.341 25.5642H178.658L169.189 3.27916Z" fill="#E5F2F8"/>
<path d="M174.075 14.7708L174.982 16.9536L171.057 17.3353L170.042 14.7708H174.075Z" fill="#E5F2F8"/>
<path d="M174.866 14.7707H158.415L159.779 11.41H173.44L174.866 14.7707Z" fill="#E5F2F8"/>
<path d="M166.319 5.34126L168.029 0.544922H164.234L153.976 25.5642H158.338L166.319 5.34126Z" fill="#E5F2F8"/>
<path d="M127.201 14.7708L126.949 16.3597L126.274 14.7708H127.201Z" fill="#E5F2F8"/>
<path d="M119.67 7.91567L118.649 5.34131L119.67 7.91567Z" fill="#E5F2F8"/>
<path d="M121.524 3.27916L120.362 0.544922L121.524 3.27916Z" fill="#E5F2F8"/>
<path d="M121.523 3.27916L120.362 0.544922L118.649 5.34126L119.67 7.91562L126.072 24.0894L126.675 25.5642H130.992L121.523 3.27916Z" fill="#E5F2F8"/>
<path d="M126.405 14.7708L127.312 16.9536L123.39 17.3353L122.375 14.7708H126.405Z" fill="#E5F2F8"/>
<path d="M127.202 14.7707H110.75L112.111 11.41H125.772L127.202 14.7707Z" fill="#E5F2F8"/>
<path d="M118.649 5.34126L120.362 0.544922H116.564L106.306 25.5642H110.671L118.649 5.34126Z" fill="#E5F2F8"/>
<path d="M48.371 14.7708L48.1197 16.3597L47.4443 14.7708H48.371Z" fill="#E5F2F8"/>
<path d="M40.8408 7.91567L39.8228 5.34131L40.8408 7.91567Z" fill="#E5F2F8"/>
<path d="M42.6928 3.27916L41.5312 0.544922L42.6928 3.27916Z" fill="#E5F2F8"/>
<path d="M42.694 3.27916L41.5325 0.544922L39.8228 5.34126L40.8408 7.91562L47.2424 24.0894L47.846 25.5642H52.1627L42.694 3.27916Z" fill="#E5F2F8"/>
<path fill-rule="evenodd" clip-rule="evenodd" d="M41.5325 0.544922L42.694 3.27916L40.8408 7.91562L39.8228 5.34126L41.5325 0.544922Z" fill="#E5F2F8"/>
<path fill-rule="evenodd" clip-rule="evenodd" d="M120.362 0.544922L121.523 3.27916L119.67 7.91562L118.649 5.34126L120.362 0.544922Z" fill="#E5F2F8"/>
<path fill-rule="evenodd" clip-rule="evenodd" d="M168.028 0.544922L169.189 3.27916L167.336 7.91562L166.318 5.34126L168.028 0.544922Z" fill="#E5F2F8"/>
<path d="M47.5778 14.7708L48.4848 16.9536L44.5597 17.3353L43.5449 14.7708H47.5778Z" fill="#E5F2F8"/>
<path d="M48.371 14.7707H31.9199L33.2838 11.41H46.9452L48.371 14.7707Z" fill="#E5F2F8"/>
<path d="M39.8222 5.34126L41.5319 0.544922H37.7373L27.479 25.5642H31.8414L39.8222 5.34126Z" fill="#E5F2F8"/>
<path d="M210.275 0.544922H206.151V25.5642H210.275V0.544922Z" fill="#E5F2F8"/>
<path d="M76.7947 14.9177H66.6245L65.0225 11.4199H76.8371C76.8371 11.4199 76.8436 14.5718 76.7947 14.9177Z" fill="#E5F2F8"/>
<path d="M71.2108 3.91548C71.2108 3.91548 71.71 2.23513 69.3575 1.25629C67.005 0.277441 63.7161 0.0751465 61.3146 0.959369C58.9132 1.84359 54.5802 5.85359 53.9635 7.40017C53.3469 8.94674 52.8705 12.2944 52.9292 12.7055C52.9292 12.7055 55.683 8.41164 58.0323 8.41164C58.0323 8.40837 60.326 1.65761 71.2108 3.91548Z" fill="#E5F2F8"/>
<path d="M65.4646 0C57.748 0 52.8701 5.79476 52.8701 13.0904C54.0643 9.86675 55.5848 7.72961 57.1509 6.3266C61.1511 2.7375 65.4646 3.91864 65.4646 3.91864C69.6344 3.91864 71.9674 6.3788 71.9674 6.3788L74.3851 3.21061C74.3851 3.21061 71.69 0 65.4646 0Z" fill="#E5F2F8"/>
</svg>
