<svg width="640" height="397" viewBox="0 0 640 397" fill="none" xmlns="http://www.w3.org/2000/svg">
<path d="M67.4075 6.39032C65.699 5.86055 61.5801 4.57588 57.1301 3.15877L50.3889 1C50.0513 2.0281 50.0513 3.13722 50.3889 4.16532C49.4561 4.449 48.6459 5.03822 48.0886 5.83817C47.5313 6.63812 47.2592 7.6023 47.3163 8.57558C47.4155 9.05613 47.4155 9.55188 47.3163 10.0324C46.9322 11.1184 45.3826 11.1052 44.2702 10.8138C42.2179 10.2627 40.2425 9.4574 38.3898 8.41665C35.9794 7.09225 33.1717 5.23808 30.6685 6.43005C29.3441 12.721 30.7612 19.2238 31.1718 25.6471C31.6849 37.1495 29.5555 48.6164 24.9471 59.1677C20.361 69.6822 14.5842 79.6361 7.7299 88.8343C7.02797 99.9196 6.7366 112.342 2.15417 122.461C1.14609 123.963 0.448166 125.652 0.101346 127.427C-0.441659 131.202 1.33304 133.599 2.20714 136.844C3.53155 141.797 1.62441 144.578 1.05492 149.254C0.73705 150.836 0.73705 152.466 1.05492 154.048C1.73036 156.776 3.29316 158.14 4.67053 159.849C5.05461 160.339 9.58406 166.219 9.79597 172.907C9.92841 177.357 8.04776 178.841 9.46487 181.701C10.7098 184.205 12.5905 183.979 13.4381 186.324C14.5771 189.33 12.021 191.118 11.7428 195.118C11.4647 199.117 13.9149 201.038 16.7093 206.706C18.8076 210.992 20.2155 215.582 20.8812 220.308C20.3894 221.79 20.3618 223.387 20.802 224.885C21.2422 226.383 22.1293 227.711 23.3446 228.691C25.7418 230.545 28.7217 231.433 31.4764 232.664C39.1315 236.254 44.8264 242.942 50.2565 249.418C53.0774 252.782 56.0176 256.437 56.4282 260.795C56.5871 262.569 56.4282 264.569 57.5804 265.894C58.2405 266.557 59.0771 267.016 59.9908 267.218C65.3679 268.715 73.2348 268.278 79.1284 268.86C81.4162 269.088 83.6832 269.491 85.9094 270.066C85.6701 271.147 85.7297 272.273 86.0815 273.324C86.9556 275.787 89.472 276.886 91.048 277.628C98.0806 281.018 92.2665 279.151 104.451 285.084C110.782 288.157 111.364 288.183 114.053 289.879C116.741 291.574 117.258 292.236 119.986 293.693C122.355 294.952 124.817 296.028 127.35 296.911C132.647 298.712 130.303 298.673 145.547 300.778L163.599 303.387C164.817 303.56 167.016 304.209 168.777 303.03C170.83 301.705 171.108 298.699 171.148 297.335C176.207 297.6 180.352 298.063 183.293 298.447C188.935 299.189 190.18 299.679 191.239 300.262C194.828 302.275 195.212 304.858 198.364 308.871C203.318 315.214 205.834 313.268 209.781 318.472C214.35 324.498 210.986 327.121 216.125 334.829C218.654 338.63 221.144 340.497 226.005 344.1C228.653 346.086 230.282 346.96 231.964 346.576C233.845 346.166 234.507 344.457 236.6 341.61C239.5 337.636 241.368 335.12 244.255 333.902C249.274 331.769 255.499 334.392 258.161 336.246C260.944 338.17 263.298 340.65 265.074 343.53C268.809 348.987 269.048 351.635 272.915 360.655C273.445 361.913 276.438 367.674 282.398 379.196C283.688 381.831 285.386 384.244 287.43 386.348C289.304 388.33 291.509 389.97 293.946 391.195C299.974 393.932 306.423 395.625 313.018 396.202C311.152 388.02 311.361 379.502 313.627 371.422C314.367 368.483 315.613 365.696 317.309 363.184C320.977 358.059 327.03 355.238 332.804 352.761C339.094 350.03 344.797 346.108 349.598 341.212C351.008 339.465 352.7 337.966 354.604 336.776C357.677 335.186 361.372 335.69 364.789 336.219L373.04 337.544C379.578 338.394 386.039 339.758 392.363 341.623C396.336 342.947 400.799 344.643 404.693 342.947C406.03 342.19 407.405 341.501 408.812 340.881C413.739 339.371 419.01 344.629 423.857 342.828C420.86 339.002 418.916 334.459 418.215 329.65C418.089 328.685 418.198 327.704 418.533 326.79C419.027 325.608 419.805 324.566 420.798 323.757C424.241 320.989 436.571 321.201 444.2 320.896C448.279 320.724 456.278 320.194 462.516 321.558C464.851 321.865 466.982 323.049 468.476 324.869C469.589 326.445 469.165 327.412 469.986 328.114C472.264 330.008 477.681 325.558 484.17 323.028C491.507 320.168 499.454 325.518 504.659 331.438C507.93 335.16 510.963 339.901 509.956 344.775C509.387 347.636 507.771 351.304 510.208 352.92C510.7 353.161 511.169 353.445 511.612 353.768C512.152 354.492 512.453 355.367 512.473 356.271C512.963 359.012 514.83 361.29 516.631 363.409C522.485 370.349 524.803 374.296 527.505 376.521C532.127 380.309 533.716 379.832 535.862 383.143C537.809 386.136 537.848 388.586 540.166 389.434C541.093 389.73 542.081 389.789 543.036 389.604C543.992 389.419 544.886 388.996 545.636 388.374C546.065 388.003 546.42 387.553 546.682 387.05C549.012 382.891 550.539 378.331 551.185 373.607C552.033 364.111 546.722 355.291 542.007 347.013C533.537 332.17 526.359 316.626 520.552 300.553C516.896 290.461 526.604 279.045 534.789 272.105C536.25 270.976 537.615 269.727 538.868 268.37C540.947 265.867 541.861 262.649 543.093 259.642C544.325 256.636 546.126 253.577 549.106 252.305C550.536 251.696 552.125 251.55 553.503 250.848C557.966 248.61 558.178 242.16 561.621 238.545C565.065 234.929 571.938 234.161 573.303 229.274L570.72 226.215C570.392 225.893 570.174 225.476 570.097 225.023C570.097 224.003 571.422 223.566 572.322 223.221C576.693 221.672 578.415 216.043 577.263 211.553C575.753 205.713 570.641 200.958 570.641 194.879C570.843 192.23 571.501 189.636 572.587 187.211C575.332 179.591 576.93 171.606 577.329 163.517C577.686 156.021 580.468 149.571 582.229 142.327C582.595 140.318 583.293 138.385 584.295 136.606C586.348 133.374 590.109 131.758 593.208 129.493C596.307 127.229 598.824 124.196 601.618 121.547C607.313 116.17 614.2 112.276 620.968 108.303C621.378 108.135 621.722 107.837 621.948 107.455C622.584 106.224 621.537 103.985 620.451 103.853C619.365 103.721 619.127 105.085 617.418 105.31C617.115 105.345 616.808 105.345 616.505 105.31C613.538 105.032 612.174 101.522 611.737 98.5819C610.956 93.1131 611.18 87.5476 612.399 82.1594C612.755 80.2642 613.494 78.4616 614.571 76.8618C615.929 75.3433 617.478 74.0077 619.18 72.8885C626.901 66.8228 631.351 56.9163 639.999 52.2808L632.954 46.7316C631.042 45.3731 629.345 43.7345 627.921 41.871C626.48 39.4333 625.422 36.7891 624.782 34.0306C623.433 29.5742 621.695 25.2445 619.59 21.0912C619.266 20.3266 618.789 19.6368 618.187 19.0648C617.57 18.6186 616.848 18.339 616.092 18.2531C615.336 18.1673 614.57 18.2781 613.869 18.5748C612.473 19.1867 611.171 19.9938 610.002 20.972C609.735 21.2304 609.38 21.3773 609.008 21.3825C608.201 21.3031 608.055 20.2038 607.565 19.5681C606.704 18.4821 604.81 19.0384 604.055 20.1906C603.451 21.4336 603.1 22.7841 603.022 24.1638C602.333 28.137 599.738 31.4745 598.784 35.355C597.566 40.3215 599.155 45.6059 598.228 50.6253C597.221 56.0686 593.288 60.6511 588.56 63.5118C583.697 66.1822 578.363 67.8867 572.852 68.5313C567.382 69.3656 561.846 69.7629 556.443 70.9681C552.735 75.7757 547.874 80.3317 544.166 85.1393C543.341 86.0274 542.769 87.1205 542.51 88.3046C542.298 90.0396 543.411 91.6288 543.835 93.3108C544.947 97.6814 541.265 102.025 537.054 103.601C532.842 105.177 528.18 104.833 523.69 105.124C520.697 105.323 517.254 106.144 515.982 108.873C514.711 111.601 516.353 114.978 515.771 117.984C515.32 120.329 513.572 122.183 511.903 123.891C506.606 129.374 501.149 134.924 494.501 138.698C487.852 142.473 479.707 144.314 472.476 141.863C471.798 141.689 471.182 141.326 470.701 140.817C470.237 140.11 470.057 139.254 470.198 138.42C470.675 133.599 474.833 130.063 476.82 125.639C479.469 119.521 477.694 112.25 474.29 106.489C473.813 105.482 473.011 104.665 472.012 104.171C469.933 103.39 467.907 105.403 466.715 107.283C464.066 111.323 462.45 111.521 461.761 111.256C460.516 110.806 460.583 106.462 461.629 102.847C462.675 99.2309 463.933 99.1117 464.808 95.9596C465.099 94.9134 466.609 89.47 463.669 85.6823C461.483 82.901 457.987 82.411 454.226 81.8812C452.142 81.474 449.993 81.5328 447.935 82.0534C445.592 82.7517 443.48 84.0641 441.816 85.8544C439.167 88.4238 429.512 99.6547 431.989 113.667C433.406 121.759 436.558 122.381 437.286 130.116C437.502 132.863 437.017 135.619 435.878 138.128C434.738 140.636 432.981 142.815 430.77 144.459C430.014 145.134 429.029 145.494 428.016 145.466C427.291 145.325 426.623 144.975 426.095 144.459C423.089 141.81 421.606 137.917 420.665 134.049C417.791 122.249 418.917 109.892 420.069 97.8005C420.89 89.2052 422.109 86.7153 423.791 84.3049C424.268 83.6294 429.843 75.8684 438.558 75.14C441.988 74.8619 449.299 75.3917 455.775 75.4844C456.437 75.4844 457.974 75.4844 458.424 74.65C458.993 73.5772 457.431 71.7495 457.245 71.5509C456.49 70.69 455.351 69.2862 451.007 68.7432C447.948 68.3591 444.054 68.7432 442.571 66.0944C442.226 65.4851 442.041 64.77 441.445 64.3594C441.079 64.2103 440.685 64.1448 440.291 64.1677C439.897 64.1907 439.513 64.3014 439.167 64.4918L429.512 68.2266C427.683 69.0446 425.733 69.559 423.738 69.7497C421.718 69.7176 419.717 69.3506 417.818 68.6637L409.037 66.0149C408.547 65.8692 407.977 65.6441 407.832 65.1408C407.686 64.6375 408.176 64.0283 408.348 63.8164C409.46 62.3465 410.323 60.7046 410.904 58.9558C409.131 59.4141 407.403 60.0302 405.739 60.7968C400.865 63.088 399.117 65.6176 392.641 69.7365C388.27 72.531 386.866 72.7958 385.595 72.3853C383.158 71.7363 381.873 69.0875 381.33 67.7234C379.715 68.156 378.059 68.5975 376.364 69.0478C374.311 69.5378 372.285 69.9881 370.325 70.3722C369.729 68.1869 371.742 66.24 373.569 64.8891C376.626 62.4124 379.857 60.1595 383.238 58.1479C386.792 56.1288 390.212 53.8814 393.475 51.42L382.88 49.685C381.807 50.2678 380.827 47.4203 379.609 47.46C379.305 47.5088 379.019 47.6316 378.774 47.8176C376.126 49.4599 372.616 48.8904 369.729 47.6852C366.842 46.48 364.179 44.6655 361.147 43.8709C357.571 42.9438 353.809 43.4868 350.114 43.3411C346.419 43.1954 342.38 42.0962 340.42 38.9706C339.426 37.3813 339.095 35.408 337.771 34.0836C336.446 32.7592 333.559 32.9048 333.347 34.759C333.347 35.2358 333.453 35.7391 333.347 36.2158C333.109 37.5402 331.348 37.8713 329.97 37.8846C299.244 38.0568 268.478 37.7786 237.884 34.9047C193.901 30.7461 150.924 26.1901 107.722 16.9326C104.027 16.1379 90.8626 12.668 85.5253 11.3038C76.6385 9.03912 72.5461 7.96635 67.4075 6.39032Z" fill="#298FCE"/>
<line y1="0.5" x2="639.999" y2="0.5" stroke="#62BFCD" stroke-dasharray="4 4"/>
<line y1="64.9883" x2="639.999" y2="64.9883" stroke="#62BFCD" stroke-dasharray="4 4"/>
<line y1="129.477" x2="639.999" y2="129.477" stroke="#62BFCD" stroke-dasharray="4 4"/>
<line y1="193.963" x2="639.999" y2="193.963" stroke="#62BFCD" stroke-dasharray="4 4"/>
<line y1="258.451" x2="639.999" y2="258.451" stroke="#62BFCD" stroke-dasharray="4 4"/>
<line y1="322.939" x2="639.999" y2="322.939" stroke="#62BFCD" stroke-dasharray="4 4"/>
<line y1="387.428" x2="639.999" y2="387.428" stroke="#62BFCD" stroke-dasharray="4 4"/>
<path d="M384.365 197.04C392.209 148.713 359.392 103.178 311.066 95.3339C262.74 87.4895 217.204 120.306 209.36 168.632C201.515 216.959 234.332 262.494 282.659 270.338C330.985 278.183 376.52 245.366 384.365 197.04Z" fill="#003E6D"/>
<path d="M386.159 187.223C390.076 139.874 354.869 98.3151 307.521 94.3974C260.172 90.4797 218.613 125.687 214.695 173.036C210.778 220.384 245.985 261.944 293.333 265.861C340.682 269.779 382.241 234.571 386.159 187.223Z" fill="#7DCEF3"/>
<path d="M300.495 268.055C283.106 268.055 266.107 262.899 251.649 253.238C237.191 243.577 225.923 229.845 219.269 213.78C212.615 197.715 210.875 180.037 214.268 162.983C217.662 145.928 226.036 130.263 238.333 117.968C250.629 105.673 266.296 97.3013 283.35 93.9104C300.405 90.5196 318.083 92.2624 334.147 98.9185C350.212 105.575 363.941 116.845 373.6 131.304C383.259 145.764 388.413 162.763 388.411 180.152C388.381 203.458 379.108 225.801 362.627 242.28C346.145 258.759 323.801 268.028 300.495 268.055V268.055ZM300.495 96.0183C283.855 96.0183 267.588 100.953 253.752 110.197C239.917 119.442 229.133 132.582 222.765 147.955C216.397 163.328 214.731 180.245 217.978 196.565C221.224 212.885 229.237 227.876 241.003 239.643C252.769 251.409 267.76 259.422 284.081 262.668C300.401 265.914 317.317 264.248 332.691 257.88C348.064 251.513 361.204 240.729 370.449 226.894C379.693 213.058 384.628 196.792 384.628 180.152C384.604 157.845 375.733 136.459 359.96 120.686C344.187 104.913 322.801 96.0416 300.495 96.0183V96.0183Z" fill="#003E6D"/>
<path d="M328.121 246.856C364.957 231.598 382.449 189.369 367.191 152.533C351.934 115.698 309.704 98.2056 272.868 113.463C236.033 128.721 218.541 170.951 233.798 207.786C249.056 244.622 291.286 262.114 328.121 246.856Z" fill="#E5F2F8"/>
<circle cx="300.495" cy="180.159" r="20.8" fill="#FF763C"/>
<path d="M365.471 150.557C365.115 150.558 364.766 150.458 364.465 150.268C364.163 150.078 363.922 149.807 363.769 149.485C358.054 137.568 349.073 127.518 337.872 120.502C326.671 113.486 313.709 109.793 300.493 109.852C289.442 109.874 278.551 112.489 268.696 117.487C258.84 122.485 250.296 129.726 243.748 138.628C243.601 138.828 243.415 138.998 243.202 139.126C242.99 139.255 242.753 139.341 242.508 139.378C242.262 139.415 242.011 139.404 241.769 139.345C241.528 139.285 241.3 139.179 241.1 139.031C240.9 138.884 240.73 138.699 240.602 138.486C240.473 138.273 240.387 138.037 240.35 137.791C240.312 137.545 240.324 137.294 240.383 137.053C240.443 136.811 240.549 136.584 240.696 136.383C248.248 126.074 258.336 117.893 269.983 112.634C281.629 107.374 294.438 105.216 307.165 106.368C319.892 107.521 332.104 111.944 342.617 119.21C353.129 126.475 361.584 136.335 367.161 147.833C367.299 148.122 367.362 148.441 367.344 148.761C367.326 149.08 367.227 149.39 367.057 149.662C366.887 149.933 366.652 150.158 366.373 150.314C366.093 150.471 365.779 150.554 365.459 150.557H365.471Z" fill="#003E6D"/>
<path d="M300.496 254.222C287.575 254.218 274.879 250.835 263.669 244.409C252.459 237.984 243.124 228.739 236.59 217.592C230.055 206.445 226.548 193.784 226.418 180.863C226.287 167.943 229.537 155.213 235.845 143.936C236.091 143.498 236.5 143.175 236.984 143.039C237.467 142.903 237.985 142.965 238.423 143.211C238.862 143.457 239.184 143.867 239.32 144.35C239.456 144.834 239.394 145.352 239.148 145.79C233.157 156.49 230.069 168.571 230.191 180.834C230.312 193.097 233.638 205.115 239.84 215.695C246.041 226.275 254.902 235.049 265.542 241.146C276.182 247.243 288.232 250.451 300.496 250.452C300.997 250.452 301.478 250.651 301.833 251.006C302.188 251.361 302.387 251.842 302.387 252.343C302.387 252.845 302.188 253.326 301.833 253.681C301.478 254.036 300.997 254.235 300.496 254.235V254.222Z" fill="#003E6D"/>
</svg>
